<?xml version="1.0" encoding="utf-8"?>
<!-- Generator: Adobe Illustrator 21.1.0, SVG Export Plug-In . SVG Version: 6.00 Build 0)  -->
<svg version="1.1" id="Layer_1" xmlns="http://www.w3.org/2000/svg" xmlns:xlink="http://www.w3.org/1999/xlink" x="0px" y="0px"
	 viewBox="0 0 2214 369" style="enable-background:new 0 0 2214 369;" xml:space="preserve">
<style type="text/css">
	.st0{fill:none;stroke:#FF0000;stroke-linecap:round;}
	.st1{fill:none;stroke:#000000;stroke-miterlimit:10;}
</style>
<g id="svgGroup">
	<path id="front_outsideCutPath" vector-effect="non-scaling-stroke" class="st0" d="M0,297v19h8.5v34H0v19h45.2v-8.5h34v8.5h34
		v-8.5h34v8.5h34v-8.5h34v8.5h34v-8.5h34v8.5h34v-8.5h34v8.5h34v-8.5h34v8.5h34v-8.5h34v8.5h34v-8.5h34v8.5h34v-8.5h34v8.5h34v-8.5
		h34v8.5h34v-8.5h34v8.5h34v-8.5h34v8.5h34v-8.5h34v8.5h34v-8.5h34v8.5h34h11.2v-19h-8.5v-34h8.5v-19h-45.2v8.5h-34V297h-34v8.5h-34
		V297h-34v8.5h-34V297h-34v8.5h-34V297h-34v8.5h-34V297h-34v8.5h-34V297h-34v8.5h-34V297h-34v8.5h-34V297h-34v8.5h-34V297h-34v8.5
		h-34V297h-34v8.5h-34V297h-34v8.5h-34V297h-34v8.5h-34V297h-34v8.5h-34V297h-34H0z"/>
	<path id="left_outsideCutPath" vector-effect="non-scaling-stroke" class="st0" d="M1025.5,297v19h-8.5v34h8.5v19h30.5v-8.5h34v8.5
		h34v-8.5h34v8.5h34h-3.5v-19h8.5v-34h-8.5v-19H1158v8.5h-34V297h-34v8.5h-34V297h-34H1025.5z"/>
	<path id="top_outsideCutPath" vector-effect="non-scaling-stroke" class="st0" d="M1214.5,197.5V228h-8.5v34h8.5v34h-8.5v34h8.5v34
		v-3.5h36.7v8.5h34v-8.5h34v8.5h34v-8.5h34v8.5h34v-8.5h34v8.5h34v-8.5h34v8.5h34v-8.5h34v8.5h34v-8.5h34v8.5h34v-8.5h34v8.5h34
		v-8.5h34v8.5h34v-8.5h34v8.5h34v-8.5h34v8.5h34v-8.5h34v8.5h34v-8.5h34v8.5h34v-8.5h34v8.5h34v-8.5h34h2.7V330h8.5v-34h-8.5v-34
		h8.5v-34h-8.5v-34v3.5h-36.7V189h-34v8.5h-34V189h-34v8.5h-34V189h-34v8.5h-34V189h-34v8.5h-34V189h-34v8.5h-34V189h-34v8.5h-34
		V189h-34v8.5h-34V189h-34v8.5h-34V189h-34v8.5h-34V189h-34v8.5h-34V189h-34v8.5h-34V189h-34v8.5h-34V189h-34v8.5h-34V189h-34v8.5
		h-34H1214.5z"/>
	<path id="back_outsideCutPath" vector-effect="non-scaling-stroke" class="st0" d="M0,216v19h8.5v34H0v19h45.2v-8.5h34v8.5h34v-8.5
		h34v8.5h34v-8.5h34v8.5h34v-8.5h34v8.5h34v-8.5h34v8.5h34v-8.5h34v8.5h34v-8.5h34v8.5h34v-8.5h34v8.5h34v-8.5h34v8.5h34v-8.5h34
		v8.5h34v-8.5h34v8.5h34v-8.5h34v8.5h34v-8.5h34v8.5h34v-8.5h34v8.5h34h11.2v-19h-8.5v-34h8.5v-19h-45.2v8.5h-34V216h-34v8.5h-34
		V216h-34v8.5h-34V216h-34v8.5h-34V216h-34v8.5h-34V216h-34v8.5h-34V216h-34v8.5h-34V216h-34v8.5h-34V216h-34v8.5h-34V216h-34v8.5
		h-34V216h-34v8.5h-34V216h-34v8.5h-34V216h-34v8.5h-34V216h-34v8.5h-34V216h-34H0z"/>
	<path id="right_outsideCutPath" vector-effect="non-scaling-stroke" class="st0" d="M1025.5,216v19h-8.5v34h8.5v19h30.5v-8.5h34
		v8.5h34v-8.5h34v8.5h34h-3.5v-19h8.5v-34h-8.5v-19H1158v8.5h-34V216h-34v8.5h-34V216h-34H1025.5z"/>
	<path id="bottom_outsideCutPath" vector-effect="non-scaling-stroke" class="st0" d="M1214.5,8.5V39h-8.5v34h8.5v34h-8.5v34h8.5v34
		v-3.5h36.7v8.5h34v-8.5h34v8.5h34v-8.5h34v8.5h34v-8.5h34v8.5h34v-8.5h34v8.5h34v-8.5h34v8.5h34v-8.5h34v8.5h34v-8.5h34v8.5h34
		v-8.5h34v8.5h34v-8.5h34v8.5h34v-8.5h34v8.5h34v-8.5h34v8.5h34v-8.5h34v8.5h34v-8.5h34v8.5h34v-8.5h34h2.7V141h8.5v-34h-8.5V73h8.5
		V39h-8.5V5v3.5h-36.7V0h-34v8.5h-34V0h-34v8.5h-34V0h-34v8.5h-34V0h-34v8.5h-34V0h-34v8.5h-34V0h-34v8.5h-34V0h-34v8.5h-34V0h-34
		v8.5h-34V0h-34v8.5h-34V0h-34v8.5h-34V0h-34v8.5h-34V0h-34v8.5h-34V0h-34v8.5h-34V0h-34v8.5h-34H1214.5z"/>
</g>
<path class="st1" d="M1244.2,338.6"/>
<path class="st1" d="M1214.1,338.6"/>
<line class="st1" x1="1244.2" y1="354" x2="1244.2" y2="293.5"/>
<path class="st1" d="M1377.1,354"/>
<line class="st1" x1="1443.6" y1="354" x2="1443.6" y2="293.5"/>
<path class="st1" d="M1510,354"/>
<path class="st1" d="M1576.5,354"/>
<path class="st1" d="M1643,354"/>
<line class="st1" x1="1709.4" y1="354" x2="1709.4" y2="293.5"/>
<circle class="st1" cx="1343.9" cy="337.7" r="9"/>
<circle class="st1" cx="1277.4" cy="337.7" r="9"/>
<circle class="st1" cx="1410.1" cy="337.7" r="9"/>
<circle class="st1" cx="1543.2" cy="337.7" r="9"/>
<circle class="st1" cx="1476.7" cy="337.7" r="9"/>
<circle class="st1" cx="1609.5" cy="337.7" r="9"/>
<circle class="st1" cx="1676" cy="338.6" r="9"/>
<path class="st1" d="M1709.4,339.8"/>
<path class="st1" d="M1709.4,294.7"/>
<path class="st1" d="M1709.4,355.2"/>
<path class="st1" d="M1842.3,354"/>
<path class="st1" d="M1975.2,354"/>
<path class="st1" d="M2041.7,354"/>
<path class="st1" d="M2108.2,354"/>
<line class="st1" x1="2174.6" y1="354" x2="2174.6" y2="293.5"/>
<circle class="st1" cx="1809.1" cy="337.7" r="9"/>
<circle class="st1" cx="1742.6" cy="337.7" r="9"/>
<circle class="st1" cx="1875.4" cy="337.7" r="9"/>
<circle class="st1" cx="2008.4" cy="337.7" r="9"/>
<circle class="st1" cx="1941.9" cy="337.7" r="9"/>
<circle class="st1" cx="2074.7" cy="337.7" r="9"/>
<circle class="st1" cx="2141.2" cy="338.6" r="9"/>
<line class="st1" x1="1310.7" y1="354" x2="1310.7" y2="293.5"/>
<line class="st1" x1="1377.1" y1="354" x2="1377.1" y2="293.5"/>
<line class="st1" x1="1642.8" y1="354" x2="1642.8" y2="293.5"/>
<line class="st1" x1="1509.9" y1="354" x2="1509.9" y2="293.5"/>
<line class="st1" x1="1576.3" y1="354" x2="1576.3" y2="293.5"/>
<line class="st1" x1="1908.8" y1="354" x2="1908.8" y2="293.5"/>
<path class="st1" d="M2174.6,294.7"/>
<line class="st1" x1="1775.8" y1="354" x2="1775.8" y2="293.5"/>
<line class="st1" x1="1842.3" y1="354" x2="1842.3" y2="293.5"/>
<line class="st1" x1="2108" y1="354" x2="2108" y2="293.5"/>
<line class="st1" x1="1975" y1="354" x2="1975" y2="293.5"/>
<line class="st1" x1="2041.5" y1="354" x2="2041.5" y2="293.5"/>
</svg>
